<svg width="1200" height="630" viewBox="0 0 1200 630" xmlns="http://www.w3.org/2000/svg">
  <rect width="1200" height="630" fill="#0f172a"/>
  <rect x="0" y="0" width="1200" height="630" fill="url(#gradient)"/>
  
  <defs>
    <linearGradient id="gradient" x1="0%" y1="0%" x2="100%" y2="100%">
      <stop offset="0%" stop-color="#10b981" stop-opacity="0.8"/>
      <stop offset="100%" stop-color="#8b5cf6" stop-opacity="0.8"/>
    </linearGradient>
  </defs>
  
  <!-- Brain Icon -->
  <g transform="translate(600, 250)">
    <path d="M0,-100 C30,-100 60,-70 60,-40 C60,-10 30,20 0,20 C-30,20 -60,-10 -60,-40 C-60,-70 -30,-100 0,-100 Z" fill="#10b981"/>
    <path d="M-40,-60 C-30,-70 -10,-70 0,-60 C10,-70 30,-70 40,-60 C30,-50 10,-50 0,-60 C-10,-50 -30,-50 -40,-60 Z" fill="#8b5cf6"/>
    <circle cx="-20" cy="-20" r="10" fill="#0f172a"/>
    <circle cx="20" cy="-20" r="10" fill="#0f172a"/>
    <path d="M-30,0 Q0,30 30,0" stroke="#0f172a" stroke-width="5" fill="none"/>
  </g>
  
  <!-- Text -->
  <text x="600" y="400" font-family="Arial, sans-serif" font-size="60" fill="white" text-anchor="middle" font-weight="bold">
    AI Tools
  </text>
  <text x="600" y="480" font-family="Arial, sans-serif" font-size="30" fill="white" text-anchor="middle">
    Transform Your Business with Artificial Intelligence
  </text>
  
  <!-- Decorative Elements -->
  <circle cx="200" cy="100" r="30" fill="#10b981" opacity="0.3"/>
  <circle cx="1000" cy="150" r="40" fill="#8b5cf6" opacity="0.3"/>
  <circle cx="300" cy="500" r="25" fill="#10b981" opacity="0.3"/>
  <circle cx="900" cy="500" r="35" fill="#8b5cf6" opacity="0.3"/>
</svg>